<!DOCTYPE svg PUBLIC "-//W3C//DTD SVG 1.1//EN" "http://www.w3.org/Graphics/SVG/1.1/DTD/svg11.dtd"><svg width="100%" height="100%" viewBox="0 0 600 76" version="1.1" xmlns="http://www.w3.org/2000/svg" xmlns:xlink="http://www.w3.org/1999/xlink" xml:space="preserve" xmlns:serif="http://www.serif.com/" style="fill-rule:evenodd;clip-rule:evenodd;stroke-linejoin:round;stroke-miterlimit:2;">
    <rect id="Artboard1" x="0" y="0" width="600" height="76" style="fill:none;"></rect>
    <g id="Artboard11" serif:id="Artboard1">
        <g transform="matrix(0.850641,0,0,0.850641,-164.136,-231.364)">
            <g transform="matrix(96,0,0,96,258.291,352.66)">
                <path d="M0.504,0L0.646,0L0.507,-0.284C0.593,-0.323 0.634,-0.405 0.634,-0.506C0.634,-0.63 0.573,-0.726 0.443,-0.746C0.423,-0.749 0.398,-0.75 0.383,-0.75L0.073,-0.75L0.073,0L0.198,0L0.198,-0.261L0.377,-0.261L0.504,0ZM0.198,-0.632L0.378,-0.632C0.392,-0.632 0.41,-0.631 0.425,-0.627C0.488,-0.611 0.507,-0.554 0.507,-0.506C0.507,-0.458 0.488,-0.4 0.425,-0.384C0.41,-0.38 0.392,-0.379 0.378,-0.379L0.198,-0.379L0.198,-0.632Z" style="fill:white;fill-rule:nonzero;"></path>
            </g>
            <g transform="matrix(96,0,0,96,319.219,352.66)">
                <path d="M0.538,0L0.538,-0.339C0.538,-0.375 0.534,-0.408 0.526,-0.438C0.497,-0.529 0.42,-0.578 0.304,-0.578C0.18,-0.578 0.097,-0.508 0.061,-0.421L0.175,-0.385C0.196,-0.44 0.244,-0.464 0.3,-0.464C0.359,-0.464 0.407,-0.435 0.414,-0.368C0.319,-0.354 0.224,-0.344 0.15,-0.315C0.084,-0.289 0.042,-0.24 0.042,-0.159C0.042,-0.054 0.115,0.016 0.227,0.016C0.324,0.016 0.379,-0.014 0.428,-0.074L0.428,0L0.538,0ZM0.394,-0.158C0.368,-0.115 0.315,-0.083 0.255,-0.083C0.196,-0.083 0.165,-0.118 0.165,-0.156C0.165,-0.198 0.197,-0.22 0.243,-0.233C0.293,-0.247 0.334,-0.253 0.414,-0.265C0.414,-0.236 0.411,-0.191 0.394,-0.158Z" style="fill:white;fill-rule:nonzero;"></path>
            </g>
            <g transform="matrix(96,0,0,96,373.747,352.66)">
                <path d="M0.568,-0.399C0.541,-0.509 0.447,-0.578 0.319,-0.578C0.148,-0.578 0.043,-0.454 0.042,-0.281C0.043,-0.111 0.144,0.016 0.318,0.016C0.443,0.016 0.533,-0.048 0.568,-0.163L0.44,-0.191C0.42,-0.133 0.384,-0.102 0.318,-0.102C0.223,-0.102 0.175,-0.174 0.175,-0.281C0.175,-0.384 0.219,-0.46 0.318,-0.46C0.375,-0.46 0.424,-0.425 0.443,-0.365L0.568,-0.399Z" style="fill:white;fill-rule:nonzero;"></path>
            </g>
            <g transform="matrix(96,0,0,96,426.775,352.66)">
                <path d="M0.177,-0.246L0.583,-0.246C0.597,-0.441 0.504,-0.578 0.322,-0.578C0.152,-0.578 0.042,-0.456 0.042,-0.275C0.042,-0.106 0.154,0.016 0.328,0.016C0.434,0.016 0.535,-0.044 0.577,-0.145L0.453,-0.182C0.428,-0.129 0.38,-0.102 0.322,-0.102C0.235,-0.102 0.186,-0.157 0.177,-0.246ZM0.322,-0.469C0.41,-0.469 0.446,-0.424 0.456,-0.345L0.18,-0.345C0.194,-0.419 0.236,-0.469 0.322,-0.469Z" style="fill:white;fill-rule:nonzero;"></path>
            </g>
            <g transform="matrix(96,0,0,96,483.903,352.66)">
                <path d="M0.601,-0.252C0.593,-0.227 0.581,-0.203 0.566,-0.182C0.526,-0.129 0.469,-0.102 0.401,-0.103C0.332,-0.104 0.267,-0.129 0.228,-0.182C0.185,-0.236 0.175,-0.306 0.174,-0.375C0.173,-0.445 0.186,-0.516 0.228,-0.568C0.267,-0.621 0.332,-0.648 0.401,-0.647C0.47,-0.646 0.525,-0.621 0.566,-0.568C0.582,-0.545 0.595,-0.519 0.603,-0.491L0.729,-0.508C0.713,-0.576 0.682,-0.638 0.621,-0.69C0.559,-0.744 0.482,-0.766 0.393,-0.766C0.285,-0.766 0.192,-0.726 0.126,-0.645C0.065,-0.571 0.042,-0.477 0.042,-0.375C0.042,-0.278 0.067,-0.184 0.127,-0.106C0.189,-0.027 0.283,0.016 0.393,0.016C0.48,0.016 0.558,-0.004 0.622,-0.059C0.678,-0.107 0.706,-0.163 0.724,-0.222L0.601,-0.252Z" style="fill:rgb(255,175,0);fill-rule:nonzero;"></path>
            </g>
            <g transform="matrix(96,0,0,96,553.931,352.66)">
                <path d="M0.322,0.016C0.49,0.016 0.602,-0.106 0.602,-0.281C0.602,-0.455 0.491,-0.578 0.322,-0.578C0.155,-0.578 0.042,-0.457 0.042,-0.281C0.042,-0.107 0.152,0.016 0.322,0.016ZM0.47,-0.281C0.47,-0.176 0.421,-0.102 0.322,-0.102C0.225,-0.102 0.175,-0.172 0.175,-0.281C0.175,-0.388 0.221,-0.46 0.322,-0.46C0.42,-0.46 0.47,-0.391 0.47,-0.281Z" style="fill:rgb(255,175,0);fill-rule:nonzero;"></path>
            </g>
            <g transform="matrix(96,0,0,96,612.659,352.66)">
                <path d="M0.522,-0.521C0.47,-0.571 0.404,-0.581 0.341,-0.577C0.29,-0.575 0.233,-0.556 0.197,-0.514C0.193,-0.508 0.189,-0.503 0.184,-0.499L0.184,-0.563L0.074,-0.563L0.074,0L0.2,0L0.2,-0.245L0.2,-0.246C0.2,-0.286 0.2,-0.329 0.206,-0.356C0.213,-0.39 0.228,-0.417 0.25,-0.434C0.271,-0.451 0.296,-0.459 0.324,-0.46C0.364,-0.461 0.396,-0.45 0.418,-0.428C0.454,-0.395 0.463,-0.332 0.463,-0.267L0.463,0L0.59,0L0.59,-0.272C0.59,-0.363 0.588,-0.461 0.522,-0.521Z" style="fill:rgb(255,175,0);fill-rule:nonzero;"></path>
            </g>
            <g transform="matrix(96,0,0,96,672.187,352.66)">
                <path d="M0.238,-0.465L0.403,-0.465L0.403,-0.563L0.238,-0.563L0.238,-0.719L0.113,-0.719L0.113,-0.563L0.01,-0.563L0.01,-0.465L0.113,-0.465L0.113,-0.23C0.113,-0.166 0.107,-0.11 0.135,-0.067C0.165,-0.022 0.198,-0.004 0.249,0.004C0.29,0.011 0.36,0.011 0.403,0L0.403,-0.105C0.373,-0.101 0.339,-0.099 0.31,-0.101C0.288,-0.103 0.263,-0.113 0.249,-0.135C0.235,-0.157 0.238,-0.193 0.238,-0.236L0.238,-0.465Z" style="fill:rgb(255,175,0);fill-rule:nonzero;"></path>
            </g>
            <g transform="matrix(96,0,0,96,712.415,352.66)">
                <path d="M0.241,-0.533C0.217,-0.517 0.198,-0.496 0.184,-0.472L0.184,-0.563L0.073,-0.563L0.073,0L0.199,0L0.199,-0.279C0.199,-0.352 0.222,-0.403 0.273,-0.432C0.308,-0.452 0.356,-0.455 0.39,-0.446L0.39,-0.563C0.34,-0.571 0.281,-0.561 0.241,-0.533Z" style="fill:rgb(255,175,0);fill-rule:nonzero;"></path>
            </g>
            <g transform="matrix(96,0,0,96,747.243,352.66)">
                <path d="M0.322,0.016C0.49,0.016 0.602,-0.106 0.602,-0.281C0.602,-0.455 0.491,-0.578 0.322,-0.578C0.155,-0.578 0.042,-0.457 0.042,-0.281C0.042,-0.107 0.152,0.016 0.322,0.016ZM0.47,-0.281C0.47,-0.176 0.421,-0.102 0.322,-0.102C0.225,-0.102 0.175,-0.172 0.175,-0.281C0.175,-0.388 0.221,-0.46 0.322,-0.46C0.42,-0.46 0.47,-0.391 0.47,-0.281Z" style="fill:rgb(255,175,0);fill-rule:nonzero;"></path>
            </g>
            <g transform="matrix(96,0,0,96,805.971,352.66)">
                <rect x="0.083" y="-0.766" width="0.125" height="0.766" style="fill:rgb(255,175,0);fill-rule:nonzero;"></rect>
            </g>
        </g>
    </g>
</svg>